<svg id="visual" viewBox="0 0 960 540" width="960" height="540" xmlns="http://www.w3.org/2000/svg" xmlns:xlink="http://www.w3.org/1999/xlink" version="1.1"><path d="M0 285L22.8 295.2C45.7 305.3 91.3 325.7 137 339C182.7 352.3 228.3 358.7 274 352.2C319.7 345.7 365.3 326.3 411.2 311.5C457 296.7 503 286.3 548.8 282.5C594.7 278.7 640.3 281.3 686 287.5C731.7 293.7 777.3 303.3 823 310.2C868.7 317 914.3 321 937.2 323L960 325L960 541L937.2 541C914.3 541 868.7 541 823 541C777.3 541 731.7 541 686 541C640.3 541 594.7 541 548.8 541C503 541 457 541 411.2 541C365.3 541 319.7 541 274 541C228.3 541 182.7 541 137 541C91.3 541 45.7 541 22.8 541L0 541Z" fill="#7ba867"></path><path d="M0 355L22.8 346.8C45.7 338.7 91.3 322.3 137 326C182.7 329.7 228.3 353.3 274 362.3C319.7 371.3 365.3 365.7 411.2 354.2C457 342.7 503 325.3 548.8 325.5C594.7 325.7 640.3 343.3 686 346.5C731.7 349.7 777.3 338.3 823 339.2C868.7 340 914.3 353 937.2 359.5L960 366L960 541L937.2 541C914.3 541 868.7 541 823 541C777.3 541 731.7 541 686 541C640.3 541 594.7 541 548.8 541C503 541 457 541 411.2 541C365.3 541 319.7 541 274 541C228.3 541 182.7 541 137 541C91.3 541 45.7 541 22.8 541L0 541Z" fill="#859250"></path><path d="M0 407L22.8 403C45.7 399 91.3 391 137 396.2C182.7 401.3 228.3 419.7 274 429.2C319.7 438.7 365.3 439.3 411.2 427.7C457 416 503 392 548.8 380.7C594.7 369.3 640.3 370.7 686 374.8C731.7 379 777.3 386 823 383.3C868.7 380.7 914.3 368.3 937.2 362.2L960 356L960 541L937.2 541C914.3 541 868.7 541 823 541C777.3 541 731.7 541 686 541C640.3 541 594.7 541 548.8 541C503 541 457 541 411.2 541C365.3 541 319.7 541 274 541C228.3 541 182.7 541 137 541C91.3 541 45.7 541 22.8 541L0 541Z" fill="#887c42"></path><path d="M0 464L22.8 455.8C45.7 447.7 91.3 431.3 137 428.2C182.7 425 228.3 435 274 433.5C319.7 432 365.3 419 411.2 421C457 423 503 440 548.8 442.5C594.7 445 640.3 433 686 430.5C731.7 428 777.3 435 823 438C868.7 441 914.3 440 937.2 439.5L960 439L960 541L937.2 541C914.3 541 868.7 541 823 541C777.3 541 731.7 541 686 541C640.3 541 594.7 541 548.8 541C503 541 457 541 411.2 541C365.3 541 319.7 541 274 541C228.3 541 182.7 541 137 541C91.3 541 45.7 541 22.8 541L0 541Z" fill="#85673b"></path><path d="M0 515L22.8 505C45.7 495 91.3 475 137 469.3C182.7 463.7 228.3 472.3 274 479.8C319.7 487.3 365.3 493.7 411.2 494.5C457 495.3 503 490.7 548.8 493C594.7 495.3 640.3 504.7 686 506.8C731.7 509 777.3 504 823 496.7C868.7 489.3 914.3 479.7 937.2 474.8L960 470L960 541L937.2 541C914.3 541 868.7 541 823 541C777.3 541 731.7 541 686 541C640.3 541 594.7 541 548.8 541C503 541 457 541 411.2 541C365.3 541 319.7 541 274 541C228.3 541 182.7 541 137 541C91.3 541 45.7 541 22.8 541L0 541Z" fill="#7c5338"></path></svg>