<svg id="visual" viewBox="0 0 960 540" width="960" height="540" xmlns="http://www.w3.org/2000/svg" xmlns:xlink="http://www.w3.org/1999/xlink" version="1.1"><path d="M0 178L22.8 173.5C45.7 169 91.3 160 137 159.8C182.7 159.7 228.3 168.3 274 172.5C319.7 176.7 365.3 176.3 411.2 182.5C457 188.7 503 201.3 548.8 203.5C594.7 205.7 640.3 197.3 686 193C731.7 188.7 777.3 188.3 823 180C868.7 171.7 914.3 155.3 937.2 147.2L960 139L960 0L937.2 0C914.3 0 868.7 0 823 0C777.3 0 731.7 0 686 0C640.3 0 594.7 0 548.8 0C503 0 457 0 411.2 0C365.3 0 319.7 0 274 0C228.3 0 182.7 0 137 0C91.3 0 45.7 0 22.8 0L0 0Z" fill="#1f1f1f"></path><path d="M0 113L22.8 118.2C45.7 123.3 91.3 133.7 137 137.8C182.7 142 228.3 140 274 144C319.7 148 365.3 158 411.2 159.5C457 161 503 154 548.8 145.2C594.7 136.3 640.3 125.7 686 121C731.7 116.3 777.3 117.7 823 128.2C868.7 138.7 914.3 158.3 937.2 168.2L960 178L960 0L937.2 0C914.3 0 868.7 0 823 0C777.3 0 731.7 0 686 0C640.3 0 594.7 0 548.8 0C503 0 457 0 411.2 0C365.3 0 319.7 0 274 0C228.3 0 182.7 0 137 0C91.3 0 45.7 0 22.8 0L0 0Z" fill="#222222"></path><path d="M0 93L22.8 100.3C45.7 107.7 91.3 122.3 137 130.8C182.7 139.3 228.3 141.7 274 134.8C319.7 128 365.3 112 411.2 106.3C457 100.7 503 105.3 548.8 104.7C594.7 104 640.3 98 686 101C731.7 104 777.3 116 823 123.8C868.7 131.7 914.3 135.3 937.2 137.2L960 139L960 0L937.2 0C914.3 0 868.7 0 823 0C777.3 0 731.7 0 686 0C640.3 0 594.7 0 548.8 0C503 0 457 0 411.2 0C365.3 0 319.7 0 274 0C228.3 0 182.7 0 137 0C91.3 0 45.7 0 22.8 0L0 0Z" fill="#252525"></path><path d="M0 64L22.8 64.2C45.7 64.3 91.3 64.7 137 68.8C182.7 73 228.3 81 274 85.3C319.7 89.7 365.3 90.3 411.2 84.5C457 78.7 503 66.3 548.8 61C594.7 55.7 640.3 57.3 686 58C731.7 58.7 777.3 58.3 823 64.5C868.7 70.7 914.3 83.3 937.2 89.7L960 96L960 0L937.2 0C914.3 0 868.7 0 823 0C777.3 0 731.7 0 686 0C640.3 0 594.7 0 548.8 0C503 0 457 0 411.2 0C365.3 0 319.7 0 274 0C228.3 0 182.7 0 137 0C91.3 0 45.7 0 22.8 0L0 0Z" fill="#282828"></path><path d="M0 30L22.8 31.5C45.7 33 91.3 36 137 36.8C182.7 37.7 228.3 36.3 274 39.2C319.7 42 365.3 49 411.2 47.7C457 46.3 503 36.7 548.8 32C594.7 27.3 640.3 27.7 686 31.2C731.7 34.7 777.3 41.3 823 45C868.7 48.7 914.3 49.3 937.2 49.7L960 50L960 0L937.2 0C914.3 0 868.7 0 823 0C777.3 0 731.7 0 686 0C640.3 0 594.7 0 548.8 0C503 0 457 0 411.2 0C365.3 0 319.7 0 274 0C228.3 0 182.7 0 137 0C91.3 0 45.7 0 22.8 0L0 0Z" fill="#2b2b2b"></path></svg>