<svg id="visual" viewBox="0 0 960 540" width="960" height="540" xmlns="http://www.w3.org/2000/svg" xmlns:xlink="http://www.w3.org/1999/xlink" version="1.1"><path d="M0 134L22.8 136C45.7 138 91.3 142 137 152.5C182.7 163 228.3 180 274 181.5C319.7 183 365.3 169 411.2 167.3C457 165.7 503 176.3 548.8 173.7C594.7 171 640.3 155 686 160.5C731.7 166 777.3 193 823 198C868.7 203 914.3 186 937.2 177.5L960 169L960 0L937.2 0C914.3 0 868.7 0 823 0C777.3 0 731.7 0 686 0C640.3 0 594.7 0 548.8 0C503 0 457 0 411.2 0C365.3 0 319.7 0 274 0C228.3 0 182.7 0 137 0C91.3 0 45.7 0 22.8 0L0 0Z" fill="#888277"></path><path d="M0 134L22.8 137.3C45.7 140.7 91.3 147.3 137 149.3C182.7 151.3 228.3 148.7 274 151.3C319.7 154 365.3 162 411.2 160.5C457 159 503 148 548.8 141C594.7 134 640.3 131 686 131C731.7 131 777.3 134 823 135.8C868.7 137.7 914.3 138.3 937.2 138.7L960 139L960 0L937.2 0C914.3 0 868.7 0 823 0C777.3 0 731.7 0 686 0C640.3 0 594.7 0 548.8 0C503 0 457 0 411.2 0C365.3 0 319.7 0 274 0C228.3 0 182.7 0 137 0C91.3 0 45.7 0 22.8 0L0 0Z" fill="#847765"></path><path d="M0 108L22.8 104.8C45.7 101.7 91.3 95.3 137 96.8C182.7 98.3 228.3 107.7 274 107.8C319.7 108 365.3 99 411.2 96C457 93 503 96 548.8 102.5C594.7 109 640.3 119 686 126.5C731.7 134 777.3 139 823 139.5C868.7 140 914.3 136 937.2 134L960 132L960 0L937.2 0C914.3 0 868.7 0 823 0C777.3 0 731.7 0 686 0C640.3 0 594.7 0 548.8 0C503 0 457 0 411.2 0C365.3 0 319.7 0 274 0C228.3 0 182.7 0 137 0C91.3 0 45.7 0 22.8 0L0 0Z" fill="#816c55"></path><path d="M0 54L22.8 58.5C45.7 63 91.3 72 137 71.8C182.7 71.7 228.3 62.3 274 65.8C319.7 69.3 365.3 85.7 411.2 89C457 92.3 503 82.7 548.8 77.2C594.7 71.7 640.3 70.3 686 75.2C731.7 80 777.3 91 823 93.5C868.7 96 914.3 90 937.2 87L960 84L960 0L937.2 0C914.3 0 868.7 0 823 0C777.3 0 731.7 0 686 0C640.3 0 594.7 0 548.8 0C503 0 457 0 411.2 0C365.3 0 319.7 0 274 0C228.3 0 182.7 0 137 0C91.3 0 45.7 0 22.8 0L0 0Z" fill="#7e6046"></path><path d="M0 31L22.8 32.5C45.7 34 91.3 37 137 42.8C182.7 48.7 228.3 57.3 274 59.5C319.7 61.7 365.3 57.3 411.2 52.8C457 48.3 503 43.7 548.8 44C594.7 44.3 640.3 49.7 686 51.5C731.7 53.3 777.3 51.7 823 53.3C868.7 55 914.3 60 937.2 62.5L960 65L960 0L937.2 0C914.3 0 868.7 0 823 0C777.3 0 731.7 0 686 0C640.3 0 594.7 0 548.8 0C503 0 457 0 411.2 0C365.3 0 319.7 0 274 0C228.3 0 182.7 0 137 0C91.3 0 45.7 0 22.8 0L0 0Z" fill="#7c5338"></path></svg>